# AST/ASF file generated using VICON BodyLanguage
# -----------------------------------------------
:version 1.10
:name VICON
:units
  mass 1.0
  length 0.45
  angle deg
:documentation
   .ast/.asf automatically generated from VICON data using
   VICON BodyBuilder and BodyLanguage model FoxedUp or BRILLIANT.MOD
:root
   order TX TY TZ RX RY RZ
   axis XYZ
   position 0 0 0  
   orientation 0 0 0 
:bonedata
  begin
     id 1 
     name lhipjoint
     direction 0.588788 -0.725889 0.355548 
     length 2.37778 
     axis 0 0 0  XYZ
  end
  begin
     id 2 
     name lfemur
     direction 0.34202 -0.939693 0  
     length 6.86393  
     axis 0 0 20  XYZ
    dof rx ry rz
    limits (-160.0 20.0)
           (-70.0 70.0)
           (-60.0 70.0)
  end
  begin
     id 3 
     name ltibia
     direction 0.34202 -0.939693 0   
     length 7.32851   
     axis 0 0 20   XYZ
    dof rx
    limits (-10.0 170.0)
  end
  begin
     id 4 
     name lfoot
     direction 0.0626533 -0.172138 0.983078   
     length 1.98929   
     axis -90 7.62852e-016 20   XYZ
    dof rx rz
    limits (-45.0 90.0)
           (-70.0 20.0)
  end
  begin
     id 5 
     name ltoes
     direction 1.53647e-011 -4.21734e-011 1   
     length 1.00479   
     axis -90 7.62852e-016 20   XYZ
    dof rx
    limits (-90.0 20.0)
  end
  begin
     id 6 
     name rhipjoint
     direction -0.59141 -0.724168 0.354705   
     length 2.38343  
     axis 0 0 0  XYZ 
  end
  begin
     id 7 
     name rfemur
     direction -0.34202 -0.939693 0   
     length 6.95589   
     axis 0 0 -20   XYZ
    dof rx ry rz
    limits (-160.0 20.0)
           (-70.0 70.0)
           (-70.0 60.0)
  end
  begin
     id 8 
     name rtibia
     direction -0.34202 -0.939693 0   
     length 7.32327   
     axis 0 0 -20   XYZ
    dof rx
    limits (-10.0 170.0)
 end
 begin
     id 9 
     name rfoot
     direction -0.0660461 -0.18146 0.981178   
     length 1.85272  
     axis -90 -7.62852e-016 -20   XYZ
    dof rx rz
    limits (-45.0 90.0)
           (-20.0 70.0)
  end
  begin
     id 10 
     name rtoes
     direction -1.53586e-011 -4.21988e-011 1   
     length 0.93746   
     axis -90 -7.62852e-016 -20   XYZ
    dof rx
    limits (-90.0 20.0)
  end
  begin
     id 11 
     name lowerback
     direction -0.0107982 0.991059 0.13299   
     length 1.98691   
     axis 0 0 0   XYZ
    dof rx ry rz
    limits (-20.0 45.0)
           (-30.0 30.0)
           (-30.0 30.0)
  end
  begin
     id 12 
     name upperback
     direction 0.0076296 0.999916 0.0104576   
     length 1.99501   
     axis 0 0 0   XYZ
    dof rx ry rz
    limits (-20.0 45.0)
           (-30.0 30.0)
           (-30.0 30.0)
  end
  begin
     id 13 
     name thorax
     direction 0.01176 0.998615 -0.0512909   
     length 2.03144   
     axis 0 0 0   XYZ
    dof rx ry rz
    limits (-20.0 45.0)
           (-30.0 30.0)
           (-30.0 30.0)
  end
  begin
     id 14 
     name lowerneck
     direction -0.0171909 0.999644 0.0204011   
     length 1.71818   
     axis 0 0 0   XYZ
    dof rx ry rz
    limits (-20.0 45.0)
           (-30.0 30.0)
           (-30.0 30.0)
  end
  begin
     id 15 
     name upperneck
     direction 0.0250902 0.997482 -0.0663316   
     length 1.66199   
     axis 0 0 0   XYZ
    dof rx ry rz
    limits (-20.0 45.0)
           (-30.0 30.0)
           (-30.0 30.0)
  end
  begin
     id 16
     name head
     direction 0.00881535 0.99956 -0.0283365  
     length 1.81545  
     axis 0 0 0   XYZ
    dof rx ry rz
    limits (-20.0 45.0)
           (-30.0 30.0)
           (-30.0 30.0)
  end
  begin
     id 17 
     name lclavicle
     direction 0.840411 0.486876 -0.238035  
     length 3.30409  
     axis 0 0 0   XYZ
    dof ry rz
    limits (-20.0 10.0)
           (0.0 20.0)
  end
  begin
     id 18 
     name lhumerus
     direction 1 -4.48977e-011 -5.16239e-027   
     length 4.62672   
     axis 180 -30 -90   XYZ
    dof rx ry rz
    limits (-60.0 90.0)
           (-90.0 90.0)
           (-90.0 90.0)
  end
  begin
     id 19
     name lradius
     direction 1 -4.48977e-011 -8.71171e-027   
     length 3.11018   
     axis 180 -30 -90   XYZ
    dof rx
    limits (-10.0 170.0)
  end
  begin
     id 20
     name lwrist
     direction 1 -4.48912e-011 -1.03764e-026   
     length 1.55509   
     axis 9.09556e-015 90 90   XYZ
    dof ry
    limits (-180.0 0.0)
 end
  begin
     id 21 
     name lhand
     direction 1 -4.49072e-011 -2.07528e-026   
     length 0.743834   
     axis 1.3242e-014 90 90   XYZ
    dof rx rz
    limits (-90.0 90.0)
           (-45.0 45.0)
  end
  begin
     id 22 
     name lfingers
     direction 1 -4.48909e-011 -4.15056e-026   
     length 0.599698   
     axis 2.64841e-014 90 90   XYZ
    dof rx
    limits (0.0 90.0)
  end
  begin
     id 23
     name lthumb
     direction 0.707107 -6.35013e-011 0.707107   
     length 0.86105   
     axis -90 45 2.85299e-015   XYZ
    dof rx rz
    limits (-45.0 45.0)
           (-45.0 45.0)
  end
  begin
     id 24 
     name rclavicle
     direction -0.835208 0.500237 -0.228452   
     length 3.2716  
     axis 0 0 0   XYZ 
    dof ry rz
    limits (-10.0 20.0)
           (-20.0 0.0)
  end
  begin
     id 25 
     name rhumerus
     direction -1 -4.48978e-011 -5.1953e-028  
     length 4.55919   
     axis 180 30 90   XYZ
    dof rx ry rz
    limits (-90.0 60.0)
           (-90.0 90.0)
           (-90.0 90.0)
  end
  begin
     id 26 
     name rradius
     direction -1 -4.48961e-011 -5.99546e-027   
     length 3.22748   
     axis 180 30 90   XYZ
    dof rx
    limits (-10.0 170.0)
  end
  begin
     id 27 
     name rwrist
     direction -1 -4.48986e-011 -1.03764e-026   
     length 1.61374   
     axis 9.09556e-015 -90 -90   XYZ
    dof ry
    limits (-180.0 0.0)
  end
  begin
     id 28
     name rhand
     direction -1 -4.4899e-011 -2.07528e-026   
     length 0.700882   
     axis 1.3242e-014 -90 -90   XYZ
    dof rx rz
    limits (-90.0 90.0)
           (-45.0 45.0)
  end
  begin
     id 29
     name rfingers
     direction -1 -4.48991e-011 -4.15056e-026   
     length 0.565069   
     axis 2.64841e-014 -90 -90   XYZ
    dof rx
    limits (0.0 90.0)
  end
  begin
     id 30
     name rthumb
     direction -0.707107 -6.34804e-011 0.707107   
     length 0.811329   
     axis -90 -45 -2.85299e-015   XYZ
    dof rx rz
    limits (-45.0 45.0)
           (-45.0 45.0)
  end
:hierarchy
  begin
    root lhipjoint rhipjoint lowerback
    lhipjoint lfemur
    lfemur ltibia
    ltibia lfoot
    lfoot ltoes
    rhipjoint rfemur
    rfemur rtibia
    rtibia rfoot
    rfoot rtoes
    lowerback upperback
    upperback thorax
    thorax lowerneck lclavicle rclavicle
    lowerneck upperneck
    upperneck head
    lclavicle lhumerus
    lhumerus lradius
    lradius lwrist
    lwrist lhand lthumb
    lhand lfingers
    rclavicle rhumerus
    rhumerus rradius
    rradius rwrist
    rwrist rhand rthumb
    rhand rfingers
  end

#!OML:ASF F:\VICON\USERDATA\INSTALL\SteveWalk\SteveWalk.ASF
:FULLY-SPECIFIED
:DEGREES
380
root -0.0502022 16.3322 31.9019 15.9866 3.0159 -0.87502
lowerback -15.5115 0.153961 2.54706
upperback -5.16244 -0.262855 2.11396
thorax 3.21494 -0.124634 0.731716
lowerneck -4.55588 -1.32272 -1.3803
upperneck 11.1654 -1.63424 -0.237316
head 4.51203 -0.875094 0.0781377
rclavicle -2.34814e-015 1.43125e-014
rhumerus -36.0061 -18.2738 -75.2371
rradius 25.1163
rwrist -1.48577
rhand -15.4528 -34.9064
rfingers 7.12502
rthumb 10.7281 -64.6124
lclavicle -2.34814e-015 1.43125e-014
lhumerus -33.8754 6.21623 85.8017
lradius 25.4759
lwrist -6.53511
lhand -22.3031 -21.9645
lfingers 7.12502
lthumb 4.11608 7.97546
rfemur -30.3325 -1.77659 26.5365
rtibia 33.8655
rfoot -19.2695 4.1594
rtoes -1.19165
lfemur -35.7268 3.3572 -19.5351
ltibia 74.6213
lfoot 1.24961 -0.810866
ltoes -10.1169
381
root -0.0254023 16.3369 32.0777 15.9197 3.45463 -0.71474
lowerback -15.3997 0.0172369 2.84654
upperback -5.1961 -0.474532 1.95953
thorax 3.11404 -0.232481 0.362709
lowerneck -4.38401 -1.23738 -1.28545
upperneck 11.2143 -1.5217 -0.311947
head 4.49244 -0.81947 0.0431418
rclavicle -5.67779e-015 -3.18055e-015
rhumerus -35.3433 -16.7023 -76.4251
rradius 26.613
rwrist -2.91751
rhand -15.7473 -34.5076
rfingers 7.12502
rthumb 10.4439 -64.2282
lclavicle -5.67779e-015 -3.18055e-015
lhumerus -34.5515 7.22205 85.0431
lradius 24.4272
lwrist -7.36639
lhand -22.189 -21.9748
lfingers 7.12502
lthumb 4.22627 7.96301
rfemur -29.2919 -3.22193 26.6117
rtibia 33.7444
rfoot -20.2222 4.40489
rtoes -3.43825
lfemur -36.8905 2.84964 -19.8857
ltibia 74.3036
lfoot -0.572136 0.368986
ltoes -8.93801
382
root -0.0188943 16.3391 32.2668 15.9268 3.56755 -0.425329
lowerback -15.3841 -0.0755017 2.72723
upperback -5.30901 -0.567673 1.79717
thorax 2.98523 -0.281001 0.243396
lowerneck -4.11409 -1.20341 -1.19411
upperneck 11.3253 -1.48417 -0.340971
head 4.47677 -0.798882 0.0204894
rclavicle 1.43373e-014 -8.74653e-015
rhumerus -34.9504 -15.1984 -77.4461
rradius 28.1274
rwrist -4.23069
rhand -16.1117 -34.0228
rfingers 7.12502
rthumb 10.0924 -63.7608
lclavicle 1.43373e-014 -8.74653e-015
lhumerus -35.4165 8.26664 84.1582
lradius 23.4066
lwrist -8.35083
lhand -21.9492 -21.4847
lfingers 7.12502
lthumb 4.45786 8.44838
rfemur -28.454 -4.1638 26.4416
rtibia 33.6738
rfoot -21.0019 4.78107
rtoes -4.2022
lfemur -38.0105 2.60986 -20.3694
ltibia 73.7116
lfoot -2.24643 1.14538
ltoes -7.25338
383
root -0.0319512 16.3376 32.4523 16.0188 3.25004 -0.076278
lowerback -15.5273 -0.0639601 2.20937
upperback -5.29254 -0.477047 1.67462
thorax 3.0849 -0.233549 0.422671
lowerneck -4.18602 -1.20923 -1.18219
upperneck 11.454 -1.4899 -0.354943
head 4.53812 -0.802414 0.0122161
rclavicle 1.59773e-014 -8.74653e-015
rhumerus -34.261 -13.7015 -78.3919
rradius 29.6086
rwrist -5.56591
rhand -16.3097 -33.8992
rfingers 7.12502
rthumb 9.90136 -63.6463
lclavicle 1.59773e-014 -8.74653e-015
lhumerus -35.9596 9.33727 83.3474
lradius 22.3278
lwrist -9.24941
lhand -21.6932 -20.9837
lfingers 7.12502
lthumb 4.70504 8.94408
rfemur -27.8885 -4.18527 26.0856
rtibia 33.7575
rfoot -21.684 4.75142
rtoes -4.2718
lfemur -39.2281 2.77038 -20.9088
ltibia 72.9082
lfoot -3.42656 1.51685
ltoes -5.62133
384
root -0.0462473 16.328 32.6166 16.1709 2.64911 0.466006
lowerback -15.5495 -0.00258456 1.40821
upperback -5.22274 -0.272844 1.50911
thorax 3.17637 -0.129585 0.738024
lowerneck -4.4888 -1.21861 -1.25104
upperneck 11.518 -1.49691 -0.309601
head 4.62436 -0.806938 0.0369372
rclavicle 2.36057e-015 1.59028e-015
rhumerus -33.5078 -12.3808 -79.201
rradius 31.2184
rwrist -6.9711
rhand -16.5986 -33.525
rfingers 7.12502
rthumb 9.62262 -63.2853
lclavicle 2.36057e-015 1.59028e-015
lhumerus -36.4213 10.3979 82.5771
lradius 21.4403
lwrist -10.1447
lhand -21.5868 -20.9807
lfingers 7.12502
lthumb 4.80773 8.94474
rfemur -27.4548 -3.81432 25.4483
rtibia 33.8161
rfoot -22.2177 4.44543
rtoes -4.91852
lfemur -40.5592 3.10914 -21.7297
ltibia 71.9554
lfoot -4.18565 1.85024
ltoes -5.11554
385
root -0.0458074 16.3159 32.7845 16.2763 2.31158 0.76044
lowerback -15.3898 0.0108953 1.08605
upperback -5.33283 -0.196304 1.37356
thorax 2.97593 -0.0919354 0.791171
lowerneck -4.46025 -1.14044 -1.29627
upperneck 11.6116 -1.40228 -0.181606
head 4.65403 -0.75622 0.0932624
rclavicle -8.54774e-015 1.27222e-014
rhumerus -33.1313 -11.0378 -79.9206
rradius 32.9206
rwrist -8.2644
rhand -16.6832 -33.2627
rfingers 7.12502
rthumb 9.54106 -63.0267
lclavicle -8.54774e-015 1.27222e-014
lhumerus -37.3147 11.3833 81.6246
lradius 20.651
lwrist -11.0738
lhand -21.573 -21.1706
lfingers 7.12502
lthumb 4.82106 8.7546
rfemur -26.9331 -3.97623 25.1077
rtibia 33.9097
rfoot -22.9457 4.33454
rtoes -7.33156
lfemur -41.7483 3.23852 -22.2877
ltibia 70.8067
lfoot -4.9479 2.32765
ltoes -4.23518
386
root -0.0273664 16.3023 32.9593 16.2631 2.58208 0.197962
lowerback -14.8619 0.0396307 1.98082
upperback -5.70016 -0.266974 1.4309
thorax 2.3029 -0.137162 0.33342
lowerneck -4.17496 -1.02356 -1.26989
upperneck 11.8949 -1.25822 -0.114334
head 4.69941 -0.681785 0.119812
rclavicle 8.74653e-015 -3.97569e-015
rhumerus -33.3254 -9.51956 -80.5204
rradius 34.8647
rwrist -9.4933
rhand -17.0817 -32.7997
rfingers 7.12502
rthumb 9.15649 -62.581
lclavicle 8.74653e-015 -3.97569e-015
lhumerus -38.6415 12.503 80.4031
lradius 19.8023
lwrist -12.2802
lhand -21.4189 -21.2086
lfingers 7.12502
lthumb 4.96993 8.71314
rfemur -26.1717 -4.93519 25.8077
rtibia 33.9153
rfoot -23.9667 4.40078
rtoes -11.4408
lfemur -42.7978 3.05529 -21.8086
ltibia 69.5535
lfoot -5.8793 2.74562
ltoes -2.76863
387
root -0.0375605 16.285 33.1417 16.4467 2.03446 0.517255
lowerback -15.8272 0.14286 1.36894
upperback -5.09377 -0.0793072 1.35872
thorax 3.45983 -0.0336606 0.638238
lowerneck -4.88473 -1.02593 -1.26472
upperneck 11.6955 -1.25055 -0.123257
head 4.77097 -0.677414 0.113135
rclavicle 7.33018e-016 3.18055e-015
rhumerus -31.9776 -8.50529 -81.126
rradius 36.6206
rwrist -10.782
rhand -17.7069 -32.2982
rfingers 7.12502
rthumb 8.5532 -62.1049
lclavicle 7.33018e-016 3.18055e-015
lhumerus -38.3833 13.8614 79.6077
lradius 18.9549
lwrist -13.6294
lhand -21.1216 -20.8781
lfingers 7.12502
lthumb 5.25695 9.03674
rfemur -25.6491 -4.73847 25.3854
rtibia 33.8856
rfoot -24.5885 4.21413
rtoes -13.0258
lfemur -43.8102 3.25513 -22.353
ltibia 67.9665
lfoot -6.52715 3.16432
ltoes -2.47858
388
root -0.0383162 16.2678 33.326 16.5814 1.67772 0.524272
lowerback -15.7934 0.269026 1.27556
upperback -5.20992 0.105637 1.31933
thorax 3.31893 0.0572636 0.683081
lowerneck -4.86497 -1.0636 -1.28609
upperneck 11.7682 -1.30083 -0.112057
head 4.79447 -0.702783 0.117755
rclavicle -4.96962e-017 3.18055e-015
rhumerus -31.706 -7.49908 -81.4838
rradius 38.1157
rwrist -12.0893
rhand -17.3694 -32.922
rfingers 7.12502
rthumb 8.87888 -62.7152
lclavicle -4.96962e-017 3.18055e-015
lhumerus -39.4264 14.6904 78.6485
lradius 18.4489
lwrist -14.7731
lhand -20.8696 -20.2037
lfingers 7.12502
lthumb 5.50025 9.70491
rfemur -25.0509 -4.96527 25.3506
rtibia 33.8004
rfoot -25.2579 4.69089
rtoes -11.8312
lfemur -44.6933 3.38023 -22.5618
ltibia 66.186
lfoot -6.84119 3.57715
ltoes -4.62404
389
root -0.0317506 16.2553 33.5083 16.7736 1.48534 0.650051
lowerback -15.859 0.262557 1.16693
upperback -5.33816 0.117543 1.24536
thorax 3.21858 0.0625716 0.668866
lowerneck -4.47089 -1.01644 -1.19194
upperneck 11.5442 -1.24437 -0.179945
head 4.62938 -0.673552 0.0840503
rclavicle -1.52691e-014 7.95139e-016
rhumerus -31.4302 -6.36987 -81.8916
rradius 39.5373
rwrist -13.1623
rhand -17.4673 -32.6525
rfingers 7.12502
rthumb 8.78446 -62.4497
lclavicle -1.52691e-014 7.95139e-016
lhumerus -40.5412 16.1038 77.2198
lradius 17.7644
lwrist -16.6623
lhand -20.716 -19.8539
lfingers 7.12502
lthumb 5.64852 10.0508
rfemur -24.5377 -5.55681 25.2233
rtibia 33.7997
rfoot -26.0492 5.38116
rtoes -10.1941
lfemur -45.5191 3.33655 -22.9099
ltibia 64.1026
lfoot -6.92775 4.06856
ltoes -7.3438
390
root -0.024055 16.2468 33.6819 16.8013 1.27643 0.858565
lowerback -15.7211 0.250054 0.98253
upperback -5.35553 0.13573 1.14911
thorax 3.12687 0.0713927 0.674501
lowerneck -4.23321 -0.966116 -1.03903
upperneck 11.3254 -1.17719 -0.326561
head 4.49804 -0.64034 0.0130737
rclavicle -3.85145e-015 1.59028e-015
rhumerus -31.0331 -5.23977 -82.2889
rradius 41.1119
rwrist -14.1694
rhand -18.8287 -30.4629
rfingers 7.12502
rthumb 7.47046 -60.311
lclavicle -3.85145e-015 1.59028e-015
lhumerus -41.5067 17.5644 75.7423
lradius 17.0485
lwrist -18.6103
lhand -20.6225 -20.125
lfingers 7.12502
lthumb 5.73885 9.77726
rfemur -23.7887 -6.14183 24.9592
rtibia 33.6082
rfoot -26.2563 6.62627
rtoes -6.00103
lfemur -46.1214 3.23699 -23.3229
ltibia 61.8149
lfoot -7.19705 4.6924
ltoes -9.16601
